{
  "title": "The.Legend.of.Tarzan.2016.1080p.WEBRip.x264",
  "uid": 15776752,
  "size": 3855151126,
  "categoryP": "video",
  "categoryS": "movies",
  "magnet": "?xt=urn:btih:d8c83246c50a89bcb0ed2cc123aeee9266dc388e&amp;dn=The.Legend.of.Tarzan.2016.1080p.WEBRip.x264&amp;tr=udp%3A%2F%2Ftracker.leechers-paradise.org%3A6969&amp;tr=udp%3A%2F%2Fzer0day.ch%3A1337&amp;tr=udp%3A%2F%2Fopen.demonii.com%3A1337&amp;tr=udp%3A%2F%2Ftracker.coppersurfer.tk%3A6969&amp;tr=udp%3A%2F%2Fexodus.desync.com%3A6969",
  "seeders": 57,
  "leechers": 13,
  "uploader": "TGroup",
  "files": 3,
  "time": 1473242070,
  "description": "[mediainfo]\r\nVideo\r\nID                                       : 1\r\nFormat                                   : AVC\r\nFormat/Info                              : Advanced Video Codec\r\nFormat profile                           :   \r\nFormat settings, CABAC                   : Yes\r\nFormat settings, ReFrames                : 4 frames\r\nCodec ID                                 : avc1\r\nCodec ID/Info                            : Advanced Video Coding\r\nDuration                                 : 1h 49mn\r\nBit rate                                 : 4 500 Kbps\r\nWidth                                    : 1 912 pixels\r\nHeight                                   : 796 pixels\r\nDisplay aspect ratio                     : 2.40:1\r\nFrame rate mode                          : Constant\r\nFrame rate                               : 29.970 (30000/1001) fps\r\nColor space                              : YUV\r\nChroma subsampling                       : 4:2:0\r\nBit depth                                : 8 bits\r\nScan type                                : Progressive\r\nBits/(Pixel*Frame)                       : 0.099\r\nStream size                              : 3.41 GiB (95%)\r\nTitle                                    : The.Legend.of.Tarzan.2016.1080p.WEBRip.x264.AAC2.0-STUTTERSHIT\r\nWriting library                          : x264 core 148 r2694 3b70645\r\nEncoding settings                        : cabac=1 / ref=4 / deblock=1:0:0 / analyse=0x3:0x113 / me=umh / subme=8 / psy=1 / psy_rd=1.00:0.00 / mixed_ref=1 / me_range=16 / chroma_me=1 / trellis=1 / 8x8dct=1 / cqm=0 / deadzone=21,11 / fast_pskip=1 / chroma_qp_offset=-2 / threads=40 / lookahead_threads=6 / sliced_threads=0 / nr=0 / decimate=1 / interlaced=0 / bluray_compat=0 / constrained_intra=0 / bframes=3 / b_pyramid=2 / b_adapt=2 / b_bias=0 / direct=3 / weightb=1 / open_gop=0 / weightp=2 / keyint=250 / keyint_min=25 / scenecut=40 / intra_refresh=0 / rc_lookahead=50 / rc=abr / mbtree=1 / bitrate=4500 / ratetol=1.0 / qcomp=0.60 / qpmin=0 / qpmax=69 / qpstep=4 / ip_ratio=1.40 / aq=1:1.00\r\n\r\nAudio\r\nID                                       : 2\r\nFormat                                   : AAC\r\nFormat/Info                              : Advanced Audio Codec\r\nFormat profile                           : LC\r\nCodec ID                                 : 40\r\nDuration                                 : 1h 49mn\r\nDuration_LastFrame                       : 43ms\r\nBit rate mode                            : Constant\r\nBit rate                                 : 224 Kbps\r\nChannel(s)                               : 2 channels\r\nChannel positions                        : Front: L R\r\nSampling rate                            : 48.0 KHz\r\nFrame rate                               : 46.875 fps (1024 spf)\r\nCompression mode                         : Lossy\r\nStream size                              : 176 MiB (5%)\r\nTitle                                    : The.Legend.of.Tarzan.2016.1080p.WEBRip.x264.AAC2.0-STUTTERSHIT\r\nDefault                                  : Yes\r\nAlternate group                          : 1",
  "parsed": {
    "xt": "urn:btih:d8c83246c50a89bcb0ed2cc123aeee9266dc388e",
    "dn": "The.Legend.of.Tarzan.2016.1080p.WEBRip.x264",
    "tr": [
      "udp://exodus.desync.com:6969",
      "udp://open.demonii.com:1337",
      "udp://tracker.coppersurfer.tk:6969",
      "udp://tracker.leechers-paradise.org:6969",
      "udp://zer0day.ch:1337"
    ],
    "infoHash": "d8c83246c50a89bcb0ed2cc123aeee9266dc388e",
    "infoHashBuffer": {
      "type": "Buffer",
      "data": [
        216,
        200,
        50,
        70,
        197,
        10,
        137,
        188,
        176,
        237,
        44,
        193,
        35,
        174,
        238,
        146,
        102,
        220,
        56,
        142
      ]
    },
    "name": "The.Legend.of.Tarzan.2016.1080p.WEBRip.x264",
    "announce": [
      "udp://exodus.desync.com:6969",
      "udp://open.demonii.com:1337",
      "udp://tracker.coppersurfer.tk:6969",
      "udp://tracker.leechers-paradise.org:6969",
      "udp://zer0day.ch:1337"
    ],
    "urlList": []
  },
  "previous": 70,
  "peers": 34,
  "last_updated": "2016-12-25T15:24:25.387Z"
}